<svg width="590" height="589" xmlns="http://www.w3.org/2000/svg" xmlns:xlink="http://www.w3.org/1999/xlink" overflow="hidden"><defs><clipPath id="clip0"><rect x="346" y="66" width="588" height="588"/></clipPath><clipPath id="clip1"><rect x="346" y="66" width="588" height="588"/></clipPath><clipPath id="clip2"><rect x="346" y="66" width="588" height="588"/></clipPath></defs><g transform="translate(-346 -66)"><g clip-path="url(#clip0)"><g clip-path="url(#clip1)"><g clip-path="url(#clip2)"><path d="M390.454 547.273 416.385 592.062C421.774 601.493 429.519 608.903 438.612 614.292 464.659 581.23 482.786 555.859 493.002 538.18 503.368 520.239 516.109 492.174 531.225 453.988 490.487 448.625 459.617 445.944 438.615 445.944 418.455 445.944 387.585 448.625 346 453.988 346 464.427 348.694 474.867 354.083 484.298L390.454 547.273Z" fill="#0066DA"/><path d="M841.392 614.292C850.488 608.903 858.233 601.493 863.619 592.065L874.396 573.543 925.924 484.298C931.213 475.071 933.998 464.623 934.005 453.988 892.179 448.625 861.366 445.944 841.562 445.944 820.279 445.944 789.465 448.625 749.118 453.988 764.054 492.383 776.627 520.448 786.837 538.18 797.134 556.07 815.318 581.439 841.392 614.292Z" fill="#EA4335"/><path d="M640.002 265.394C670.137 229 690.906 200.935 702.305 181.202 711.486 165.312 721.59 139.941 732.615 105.091 723.521 99.702 713.082 97.0078 702.305 97.0078L577.7 97.0078C566.923 97.0078 556.486 100.04 547.39 105.091 561.415 145.061 573.317 173.508 583.093 190.429 593.897 209.13 612.867 234.117 640.002 265.394Z" fill="#00832D"/><path d="M748.78 453.988 531.225 453.988 438.615 614.292C447.706 619.68 458.145 622.374 468.922 622.374L811.083 622.374C821.86 622.374 832.301 619.342 841.392 614.289L748.782 453.988Z" fill="#2684FC"/><path d="M640.002 265.394 547.392 105.093C538.297 110.481 530.552 117.889 525.163 127.32L354.083 423.679C348.793 432.905 346.007 443.353 346 453.988L531.225 453.988 640.005 265.394Z" fill="#00AC47"/><path d="M840.384 275.498 754.841 127.317C749.455 117.886 741.708 110.479 732.615 105.091L640.005 265.394 748.78 453.988 933.669 453.988C933.669 443.547 930.975 433.11 925.587 423.679L840.384 275.498Z" fill="#FFBA00"/></g></g></g><path d="M735.5 522 785.25 522 785.25 373.5 884.75 373.5 884.75 522 934.5 522 835 621.5Z" stroke="#FFFFFF" stroke-width="1.33333" stroke-miterlimit="8" fill="#00DDCA" fill-rule="evenodd"/><path d="M934.5 197 884.75 197 884.75 345.5 785.25 345.5 785.25 197 735.5 197 835 97.5001Z" stroke="#FFFFFF" stroke-width="1.33333" stroke-miterlimit="8" fill="#00DDCA" fill-rule="evenodd"/></g></svg>