<svg width="666" height="666" xmlns="http://www.w3.org/2000/svg" xmlns:xlink="http://www.w3.org/1999/xlink" overflow="hidden"><defs><clipPath id="clip0"><rect x="308" y="28" width="664" height="664"/></clipPath><clipPath id="clip1"><rect x="308" y="28" width="664" height="664"/></clipPath><clipPath id="clip2"><rect x="308" y="28" width="664" height="664"/></clipPath></defs><g transform="translate(-307 -27)"><g clip-path="url(#clip0)"><g clip-path="url(#clip1)"><g clip-path="url(#clip2)"><path d="M358.199 571.479 387.483 622.057C393.568 632.707 402.314 641.074 412.583 647.159 441.996 609.825 462.466 581.174 474.003 561.21 485.708 540.95 500.096 509.257 517.165 466.136 471.162 460.08 436.302 457.053 412.585 457.053 389.82 457.053 354.96 460.08 308 466.136 308 477.925 311.042 489.713 317.127 500.363L358.199 571.479Z" fill="#0066DA"/><path d="M867.423 647.159C877.694 641.074 886.44 632.707 892.522 622.06L904.692 601.143 962.88 500.363C968.853 489.944 971.998 478.146 972.005 466.136 924.773 460.08 889.978 457.053 867.615 457.053 843.581 457.053 808.783 460.08 763.221 466.136 780.088 509.493 794.287 541.186 805.816 561.21 817.444 581.413 837.978 610.061 867.423 647.159Z" fill="#EA4335"/><path d="M640.003 253.166C674.033 212.068 697.485 180.375 710.358 158.092 720.725 140.149 732.135 111.498 744.585 72.143 734.317 66.0581 722.528 63.0156 710.358 63.0156L569.647 63.0156C557.477 63.0156 545.691 66.4394 535.42 72.143 551.257 117.279 564.698 149.403 575.737 168.511 587.938 189.63 609.36 217.847 640.003 253.166Z" fill="#00832D"/><path d="M762.84 466.136 517.165 466.136 412.585 647.159C422.851 653.244 434.64 656.287 446.81 656.287L833.195 656.287C845.365 656.287 857.157 652.863 867.423 647.157L762.843 466.136Z" fill="#2684FC"/><path d="M640.003 253.166 535.423 72.1456C525.151 78.2306 516.405 86.5954 510.32 97.2453L317.127 431.909C311.154 442.328 308.008 454.127 308 466.136L517.165 466.136 640.005 253.166Z" fill="#00AC47"/><path d="M866.284 264.576 769.685 97.2428C763.603 86.5928 754.854 78.228 744.585 72.143L640.005 253.166 762.84 466.136 971.627 466.136C971.627 454.345 968.584 442.559 962.499 431.909L866.284 264.576Z" fill="#FFBA00"/></g></g></g><path d="M427 350.65 539 157 651 350.65 579.013 350.65 579.013 618 498.987 618 498.987 350.65Z" stroke="#007E72" stroke-width="6" stroke-miterlimit="8" fill="#00DDCA" fill-rule="evenodd"/><path d="M0 192.786 111.5 0 223 192.786 151.335 192.786 151.335 461 71.6653 461 71.6653 192.786Z" stroke="#007E72" stroke-width="6" stroke-miterlimit="8" fill="#00DDCA" fill-rule="evenodd" transform="matrix(1 0 0 -1 627 618)"/></g></svg>