<svg xmlns="http://www.w3.org/2000/svg" xml:space="preserve" viewBox="0 0 256 256">
    <path
        d="M219.3 94.4h-5.7V66.5c0-1.1-.4-2.1-1.1-3l-45.5-52c-.3-.3-.6-.6-.9-.8-.1-.1-.2-.1-.3-.2-.3-.2-.6-.3-.9-.4-.1 0-.2 0-.2-.1-.3-.1-.7-.1-1.1-.1h-112c-5.1 0-9.2 4.1-9.2 9.2v75.2h-5.7c-7.3 0-13.2 5.9-13.2 13.2v68.8c0 7.3 5.9 13.2 13.2 13.2h5.7v47.1c0 5.1 4.1 9.2 9.2 9.2h152.7c5.1 0 9.2-4.1 9.2-9.2v-47.1h5.7c7.3 0 13.2-5.9 13.2-13.2v-68.8c.1-7.2-5.8-13.1-13.1-13.1zM51.6 19.2h107.2v47.4c0 2.6 2.1 4.6 4.6 4.6h40.9v23.2H51.6V19.2zm120.6 108.7c0 6.2-2 11.4-5.8 14.9-4.9 4.6-12 6.6-20.4 6.6-1.9 0-3.5-.1-4.9-.3v22.5H127v-62.1c4.4-.7 10.5-1.3 19.2-1.3 8.8 0 15 1.7 19.2 5.1 4.2 3.2 6.8 8.4 6.8 14.6zM46.6 171.7l4-63h19l6.2 21c2 7.3 3.9 15.1 5.3 22.5h.3c1.8-7.3 3.9-15.6 6-22.6l6.7-21h18.6l3.4 63h-13.9l-.9-24.1c-.3-7.6-.6-16.7-.6-25.9h-.3c-2 8-4.6 17-7 24.4l-7.7 24.6H74.6l-6.7-24.4c-2-7.4-4.2-16.4-5.7-24.6H62c-.4 8.5-.6 18.2-1.1 26.1l-1.1 23.9H46.6v.1zm157.8 62.5H51.6v-44.6h152.7l.1 44.6zm-7.7-61.5c-7.9 0-14.5-2-18-4.3l2.9-10.6c2.5 1.3 8.3 3.7 14.1 3.7 7.4 0 11.1-3.5 11.1-8.1 0-6-6-8.7-12.2-8.7h-5.8v-10.2h5.5c4.8-.1 10.8-1.9 10.8-7 0-3.6-3-6.3-9-6.3-5 0-10.2 2.1-12.7 3.6l-2.9-10.3c3.6-2.3 10.9-4.6 18.8-4.6 13 0 20.2 6.8 20.2 15.1 0 6.4-3.6 11.5-11.1 14.1v.2c7.3 1.3 13.2 6.8 13.2 14.8 0 10.8-9.5 18.6-24.9 18.6z" />
    <path d="M147 119c-2.9 0-4.9.3-5.9.6v18.6c1.2.3 2.7.4 4.8.4 7.6 0 12.2-3.8 12.2-10.3.1-5.9-4-9.3-11.1-9.3z" />
</svg>