<svg xmlns="http://www.w3.org/2000/svg" xml:space="preserve" viewBox="0 0 256 256"><path d="m190.7 134.5-8.4 13.7v.2h14.1v-13.9c0-3.8.2-7.6.5-11.7h-.4c-2.1 4-3.7 7.7-5.8 11.7z"/><path d="M219.3 94.4h-5.7V66.5c0-1.1-.4-2.1-1.1-3l-45.5-52c-.3-.3-.6-.6-.9-.8-.1-.1-.2-.1-.3-.2-.3-.2-.6-.3-.9-.4-.1 0-.2 0-.2-.1-.3-.1-.7-.1-1.1-.1h-112c-5.1 0-9.2 4.1-9.2 9.2v75.2h-5.7c-7.3 0-13.2 5.9-13.2 13.2v68.8c0 7.3 5.9 13.2 13.2 13.2h5.7v47.1c0 5.1 4.1 9.2 9.2 9.2h152.7c5.1 0 9.2-4.1 9.2-9.2v-47.1h5.7c7.3 0 13.2-5.9 13.2-13.2v-68.8c.1-7.2-5.8-13.1-13.1-13.1zM51.6 19.2h107.2v47.4c0 2.6 2.1 4.6 4.6 4.6h40.9v23.2H51.6V19.2zm111.8 109.9c0 6.4-2.1 11.8-6 15.4-5 4.7-12.5 6.8-21.1 6.8-1.9 0-3.7-.1-5-.3v23.2h-14.6v-64.1c4.5-.8 10.9-1.3 19.9-1.3 9.1 0 15.5 1.7 19.9 5.2 4 3.3 6.9 8.7 6.9 15.1zm-113.7-6.4h-.2c-.4 8.8-.7 18.8-1.2 26.9l-1.2 24.7H33.6l4.1-65h19.6l6.4 21.7c2 7.5 4 15.6 5.5 23.2h.3c1.8-7.5 4-16.1 6.2-23.3l7-21.6h19.2l3.6 65H91l-1-24.9c-.3-7.8-.6-17.3-.6-26.7h-.3c-2 8.3-4.7 17.6-7.3 25.2L74 173.3H62.5l-6.9-25.2c-2.1-7.6-4.4-16.9-5.9-25.4zm154.7 111.5H51.6v-44.6h152.7l.1 44.6zm13.4-74.8h-7.5v15h-13.9v-15h-27.8v-9.6l23.8-38.2h17.9v36.8h7.5v11z"/><path d="M137.3 119.9c-3 0-5 .3-6.1.6v19.2c1.3.3 2.8.4 4.9.4 7.8 0 12.6-4 12.6-10.6.1-6-4.1-9.6-11.4-9.6z"/></svg>